<?xml version="1.0" encoding="UTF-8"?>
<svg version="1.1" xmlns="http://www.w3.org/2000/svg" width="200" height="195">
<path d="M0 0 C1.5703125 2.94140625 1.5703125 2.94140625 3.125 6.5625 C4.44325267 9.12484299 5.74322763 11.17942838 8 13 C13.40418859 14.57337136 19.22041595 13.68299735 24.74316406 13.16210938 C29.19239183 12.84251967 33.58940692 13.44495907 38 14 C38.27199219 13.27296875 38.54398437 12.5459375 38.82421875 11.796875 C39.96293652 9.08816429 41.23740342 6.72693289 42.8125 4.25 C43.29332031 3.47140625 43.77414063 2.6928125 44.26953125 1.890625 C46.48451565 -0.52935796 47.773299 -0.65436594 51 -1 C53.30834961 -0.44262695 53.30834961 -0.44262695 55.65234375 0.51171875 C56.94108398 1.03088867 56.94108398 1.03088867 58.25585938 1.56054688 C59.58327148 2.11838867 59.58327148 2.11838867 60.9375 2.6875 C61.81857422 3.04005859 62.69964844 3.39261719 63.60742188 3.75585938 C68.44175877 5.73667007 72.90572351 7.72457881 77 11 C77.57461748 14.51953208 77.25739075 17.18983198 76.1796875 20.58203125 C75.31230008 23.59262351 74.77537806 25.86410157 75 29 C77.81380112 32.71352979 81.3037325 35.21334029 85 38 C85.79535156 38.93457031 86.59070313 39.86914062 87.41015625 40.83203125 C89.860695 43.38257148 89.860695 43.38257148 93.3046875 42.83203125 C94.48289063 42.49558594 95.66109375 42.15914062 96.875 41.8125 C101.76786323 40.46293003 105.91340626 39.81136673 111 40 C122.99611677 63.46813134 122.99611677 63.46813134 123.00390625 68.546875 C121.74628122 71.61998208 120.13975875 72.21092588 117.23706055 73.62280273 C113.95594248 75.27863379 111.15549784 76.96685081 109 80 C107.6651684 85.73812482 108.81038285 91.72301787 109.7199707 97.46166992 C110.01760019 100.15953718 109.88283031 102.65411553 109.7109375 105.359375 C109.60818256 107.80538157 109.60818256 107.80538157 110 110 C112.50290174 112.71105693 112.50290174 112.71105693 115.9375 114.3125 C121.74777314 117.44529055 121.74777314 117.44529055 123.0390625 120.28515625 C122.98681965 123.91603453 121.8505648 126.84003402 120.4375 130.125 C120.16591064 130.77936035 119.89432129 131.4337207 119.61450195 132.10791016 C113.5180874 146.4819126 113.5180874 146.4819126 110 150 C108.03125 149.94921875 108.03125 149.94921875 105.5 149.6875 C104.6853125 149.60886719 103.870625 149.53023437 103.03125 149.44921875 C100 149 100 149 97.95605469 148.26416016 C94.43606863 147.10074907 92.15726945 146.43294295 88.73046875 148.11206055 C86.36359599 149.92921981 84.31991353 151.85077761 82.25 154 C81.53062256 154.72807861 80.81124512 155.45615723 80.07006836 156.20629883 C75.7558323 160.9364569 75.7558323 160.9364569 74.67578125 167.01171875 C75.47020908 170.68084709 75.47020908 170.68084709 76.87890625 174.01171875 C78.10972931 177.29248405 78.1396015 178.73008816 77 182 C73.75200434 185.24799566 69.52444663 186.68367331 65.375 188.5625 C64.49714844 188.97435547 63.61929688 189.38621094 62.71484375 189.81054688 C57.39982185 192.22323512 52.85641678 193.76311123 47 194 C45 192.6875 45 192.6875 44 191 C44 190.34 44 189.68 44 189 C43.34 189 42.68 189 42 189 C41.74605469 188.43410156 41.49210937 187.86820313 41.23046875 187.28515625 C40.88628906 186.55167969 40.54210937 185.81820312 40.1875 185.0625 C39.85105469 184.33160156 39.51460938 183.60070312 39.16796875 182.84765625 C38.06399866 180.66970511 38.06399866 180.66970511 35 180 C33.27345242 179.92940621 31.54425976 179.91576789 29.81640625 179.9375 C28.80642578 179.94523438 27.79644531 179.95296875 26.75585938 179.9609375 C24.63085879 179.98693139 22.50585879 180.01297288 20.38085938 180.0390625 C19.36958984 180.04679688 18.35832031 180.05453125 17.31640625 180.0625 C16.39287354 180.07410156 15.46934082 180.08570313 14.51782227 180.09765625 C12.18459242 180.0071596 10.23020531 179.66341344 8 179 C7.79375 179.804375 7.5875 180.60875 7.375 181.4375 C5.57139638 186.110473 2.87884691 189.92616004 0 194 C-7.25247985 193.56646777 -12.76053943 191.75489727 -19.3125 188.6875 C-20.19228516 188.29626953 -21.07207031 187.90503906 -21.97851562 187.50195312 C-26.69419314 185.34283882 -29.19299726 183.80700274 -33 180 C-31.35 174.39 -29.7 168.78 -28 163 C-28.66 163 -29.32 163 -30 163 C-31.68997323 161.35697047 -33.35216394 159.68528688 -35 158 C-36.5159375 156.7934375 -36.5159375 156.7934375 -38.0625 155.5625 C-41.16713843 152.85419839 -42.88953068 150.49039157 -45 147 C-45.79664062 147.2165625 -46.59328125 147.433125 -47.4140625 147.65625 C-49.00347656 148.07390625 -49.00347656 148.07390625 -50.625 148.5 C-52.19121094 148.91765625 -52.19121094 148.91765625 -53.7890625 149.34375 C-57.03389689 150.00692783 -59.70505764 150.36559051 -63 150 C-67.94477284 145.80769259 -70.57632644 138.02728836 -73.375 132.25 C-73.73319824 131.51724854 -74.09139648 130.78449707 -74.46044922 130.02954102 C-77.9041195 122.66741429 -77.9041195 122.66741429 -77 119 C-74.734375 116.796875 -74.734375 116.796875 -71.75 114.75 C-70.77546875 114.06421875 -69.8009375 113.3784375 -68.796875 112.671875 C-66.40866267 111.24428439 -64.71103264 110.43892909 -62 110 C-62.33 109.34 -62.66 108.68 -63 108 C-62.91797322 106.00776296 -62.77602073 104.01786744 -62.60546875 102.03125 C-61.20913313 89.47509301 -61.20913313 89.47509301 -64.36962891 77.70117188 C-67.98781754 74.00901859 -72.22976923 71.87401923 -77 70 C-76.39356726 64.34914942 -74.35357888 59.60157257 -72.125 54.4375 C-71.77308594 53.60025391 -71.42117187 52.76300781 -71.05859375 51.90039062 C-70.07187188 49.58397851 -69.04258917 47.29166862 -68 45 C-67.56429687 43.98035156 -67.12859375 42.96070313 -66.6796875 41.91015625 C-65 40 -65 40 -61.77734375 39.5625 C-57.85202642 40.01713861 -54.34062772 40.8485706 -50.5625 42 C-49.32628906 42.37125 -48.09007812 42.7425 -46.81640625 43.125 C-45.88699219 43.41375 -44.95757812 43.7025 -44 44 C-43.79761719 43.44570313 -43.59523437 42.89140625 -43.38671875 42.3203125 C-41.81784963 39.69521883 -39.87552172 38.13843514 -37.50463867 36.24511719 C-32.21195614 32.14154195 -32.21195614 32.14154195 -29.3984375 26.3046875 C-29.68911113 23.73576112 -30.22754403 21.46430246 -31 19 C-32.17610063 12.26415094 -32.17610063 12.26415094 -30 9 C-26.03831665 6.93303478 -21.84016724 5.3934256 -17.6875 3.75 C-16.54603516 3.27820313 -15.40457031 2.80640625 -14.22851562 2.3203125 C-12.57432617 1.65902344 -12.57432617 1.65902344 -10.88671875 0.984375 C-9.87826904 0.57928711 -8.86981934 0.17419922 -7.83081055 -0.24316406 C-4.71752043 -1.07552278 -3.02032538 -1.09406203 0 0 Z M-25.99609375 59.375 C-36.40273647 73.34004313 -40.13002187 89.90964202 -37.71142578 107.04443359 C-34.66800059 123.50344044 -25.59074757 136.51676249 -12 146 C4.21496807 155.62088106 21.68284411 158.13959144 40 154 C49.76152532 150.7905655 60.29879283 146.0414486 67 138 C67 137.34 67 136.68 67 136 C67.88365234 135.63648438 67.88365234 135.63648438 68.78515625 135.265625 C77.21758142 130.44709633 80.43064922 118.69544747 83 110 C86.62663607 95.60822269 83.66935911 79.73452116 76.79296875 66.84765625 C73.74550061 62.00755979 70.05628822 58.00888585 66 54 C65.30003906 53.278125 64.60007812 52.55625 63.87890625 51.8125 C52.49286047 40.78161528 36.73544961 36.44342941 21.15966797 36.58032227 C2.66082835 37.26800325 -14.01898766 45.12435322 -25.99609375 59.375 Z " fill="#FECC26" transform="translate(77,1)"/>
<path d="M0 0 C0.66 0.33 1.32 0.66 2 1 C1.835 1.53625 1.67 2.0725 1.5 2.625 C0.90339788 5.45886009 0.9343632 8.1119806 1 11 C-1.01544839 8.73262056 -1.94914998 7.42714016 -2.3125 4.375 C-2 2 -2 2 0 0 Z " fill="#FDD449" transform="translate(2,118)"/>
<path d="M0 0 C0.66 0 1.32 0 2 0 C1.57781184 1.6498275 1.13675575 3.29483665 0.6875 4.9375 C0.44386719 5.85402344 0.20023438 6.77054687 -0.05078125 7.71484375 C-0.36402344 8.46894531 -0.67726562 9.22304687 -1 10 C-1.99 10.33 -2.98 10.66 -4 11 C-3.52269162 9.5410574 -3.04308958 8.08286504 -2.5625 6.625 C-2.29566406 5.81289062 -2.02882812 5.00078125 -1.75390625 4.1640625 C-1 2 -1 2 0 0 Z " fill="#FED13A" transform="translate(43,70)"/>
<path d="M0 0 C0.99 0.66 1.98 1.32 3 2 C1.5682384 2.69937202 0.12932968 3.38412718 -1.3125 4.0625 C-2.51326172 4.63677734 -2.51326172 4.63677734 -3.73828125 5.22265625 C-6 6 -6 6 -9 5 C-6.23776722 2.23776722 -3.79293383 2.42143709 0 2 C0 1.34 0 0.68 0 0 Z " fill="#FED13C" transform="translate(138,188)"/>
<path d="M0 0 C0.66 0.33 1.32 0.66 2 1 C-0.25 3.5625 -0.25 3.5625 -3 6 C-4.32 5.67 -5.64 5.34 -7 5 C-4.69 3.35 -2.38 1.7 0 0 Z " fill="#FED240" transform="translate(11,112)"/>
</svg>
